<?xml version="1.0" encoding="UTF-8"?>
<!DOCTYPE svg PUBLIC "-//W3C//DTD SVG 1.1//EN" "http://www.w3.org/Graphics/SVG/1.1/DTD/svg11.dtd">
<svg version="1.1" xmlns="http://www.w3.org/2000/svg" xmlns:xlink="http://www.w3.org/1999/xlink" x="0" y="0" width="226" height="89" viewBox="0 0 226 89">
  <desc>哈囉，<br/>我是姜柏任。</desc>
  <path d="M34.718,15.176 C30.506,12.224 27.41,9.02 23.99,3.98 C24.17,3.548 24.422,3.152 24.602,2.576 L23.054,2 C20.102,8.12 17.258,11.36 12.29,15.572 L13.622,16.904 C17.834,13.304 20.822,9.74 23.162,5.672 C25.754,9.452 28.922,12.98 33.494,16.724 z M29.21,15.464 L29.21,13.772 L17.726,13.772 L17.726,15.464 z M30.614,34.76 L30.614,20.576 L16.106,20.576 L16.106,34.76 L17.942,34.76 L17.942,32.708 L28.778,32.708 L28.778,34.76 z M12.074,29.144 L12.074,5.312 L3.182,5.312 L3.182,29.144 L4.946,29.144 L4.946,27.272 L10.31,27.272 L10.31,29.144 z M28.778,31.088 L17.942,31.088 L17.942,22.34 L28.778,22.34 z M10.31,25.652 L4.946,25.652 L4.946,6.968 L10.31,6.968 z M44.006,7.004 L40.874,7.004 L40.874,25.544 L44.006,25.544 z M63.302,26.732 L59.522,26.732 L59.522,31.268 L63.302,31.268 z M63.302,21.512 L59.522,21.512 L59.522,25.22 L63.302,25.22 z M63.302,16.4 L59.522,16.4 L59.522,19.964 L63.302,19.964 z M53.762,4.88 L48.902,4.88 L48.902,8.768 L53.762,8.768 z M60.35,4.88 L55.382,4.88 L55.382,8.768 L60.35,8.768 z M67.118,4.88 L61.97,4.88 L61.97,8.768 L67.118,8.768 z M45.122,33.824 C46.238,30.98 47.066,28.712 47.75,26.444 L49.262,26.876 C48.542,29.18 47.786,31.484 46.67,34.472 z M50.702,33.86 C50.702,31.088 50.594,29.252 50.414,26.876 L51.926,26.804 C52.106,29.072 52.214,30.944 52.322,33.824 z M44.006,29.324 L44.006,27.164 L40.874,27.164 L40.874,29.684 L39.146,29.684 L39.146,5.456 L45.734,5.456 L45.734,29.324 z M55.346,32.852 C54.662,30.548 54.122,28.856 53.402,26.84 L54.734,26.336 C55.562,28.388 56.066,29.972 56.894,32.312 z M55.742,26.3 C55.418,25.688 55.202,25.22 54.806,24.608 C52.358,24.932 49.694,25.184 46.562,25.436 L46.274,23.816 C46.814,23.816 47.318,23.816 47.75,23.78 C49.226,22.088 50.45,20.432 51.566,18.56 C50.126,18.812 48.434,18.956 46.418,19.136 L46.166,17.48 C46.706,17.48 47.102,17.48 47.498,17.444 C48.938,15.032 49.694,13.052 50.738,10.532 L52.25,11.144 C51.134,13.592 50.342,15.428 49.226,17.336 C50.342,17.3 51.386,17.192 52.43,17.084 C52.97,16.112 53.546,15.068 54.014,14.024 L55.562,14.6 C53.798,18.2 51.746,21.332 49.874,23.636 C51.206,23.528 52.61,23.42 54.05,23.24 L52.826,21.368 L53.978,20.54 C55.094,22.124 55.922,23.492 57.11,25.472 z M59.522,32.744 L59.522,34.868 L57.902,34.868 L57.902,17.912 C57.434,18.884 56.822,20.036 56.138,21.152 L54.734,20.288 C56.57,17.408 58.262,13.844 59.306,10.712 L60.746,11.252 C60.35,12.404 59.882,13.52 59.342,14.852 L64.238,14.852 C63.626,13.7 63.23,12.98 62.51,11.72 L63.806,10.928 C64.634,12.224 65.138,13.16 65.966,14.564 L65.426,14.852 L69.674,14.852 L69.674,16.4 L64.958,16.4 L64.958,19.964 L69.098,19.964 L69.098,21.512 L64.958,21.512 L64.958,25.22 L69.098,25.22 L69.098,26.732 L64.958,26.732 L64.958,31.268 L70.142,31.268 L70.142,32.744 z M47.246,10.352 L47.246,3.332 L68.774,3.332 L68.774,10.352 z M76.226,33.14 C78.998,31.844 80.546,30.08 80.69,27.236 C80.438,27.308 80.186,27.344 79.934,27.344 C78.638,27.344 77.702,26.66 77.702,25.148 C77.702,23.672 78.746,22.952 79.934,22.952 C81.626,22.952 82.526,24.392 82.526,26.624 C82.526,30.404 80.222,33.14 76.838,34.472 z M36.818,85.87 C34.928,85.87 31.106,83.98 28.082,77.596 C25.016,80.62 21.446,83.014 16.952,85.03 L15.902,83.056 C20.732,80.914 24.26,78.562 27.242,75.58 C25.898,72.094 24.764,67.684 24.134,61.762 L14.012,61.762 L14.012,68.902 C16.532,67.936 18.8,67.012 21.32,65.878 L21.698,67.936 C19.052,69.154 16.658,70.162 14.012,71.17 L14.012,82.552 C14.012,85.198 13.34,86.206 10.358,86.206 C9.056,86.206 7.67,86.08 6.326,85.912 L6.074,83.518 C7.754,83.728 9.14,84.022 10.358,84.022 C11.492,84.022 11.87,83.896 11.87,82.846 L11.87,71.968 C9.14,72.934 6.872,73.69 3.848,74.53 L3.008,72.346 C6.2,71.464 9.14,70.666 11.87,69.7 L11.87,61.762 L2,61.762 L2,59.662 L11.87,59.662 L11.87,51.514 C9.014,51.976 6.746,52.312 4.058,52.774 L3.176,50.758 C9.686,49.876 13.004,49.33 18.716,48.112 L19.682,50.002 C17.708,50.464 15.902,50.8 14.012,51.136 L14.012,59.662 L23.966,59.662 C23.672,56.302 23.588,52.648 23.714,48.28 L25.856,48.28 C25.73,52.648 25.856,56.344 26.15,59.662 L39.716,59.662 L39.716,61.762 L26.36,61.762 C26.906,66.844 27.83,70.708 28.964,73.732 C31.316,71.044 33.206,68.062 35.096,64.408 L37.028,65.5 C34.844,69.532 32.492,72.85 29.804,75.832 C32.492,81.88 35.516,83.518 36.314,83.518 C36.902,83.518 37.364,82.342 38.162,76.63 L40.346,77.89 C39.338,83.476 38.75,85.87 36.818,85.87 z M35.768,58.192 C32.828,55 31.484,53.74 28.586,50.842 L29.972,49.456 C32.996,52.354 34.382,53.698 37.238,56.554 z M72.602,57.436 L53.072,57.436 L53.072,61.678 L72.602,61.678 z M72.602,51.934 L53.072,51.934 L53.072,55.546 L72.602,55.546 z M81.968,85.366 C80.162,85.492 78.44,85.534 76.718,85.534 C62.9,85.534 57.692,83.014 53.24,76.798 C51.518,80.116 49.292,83.098 46.1,86.248 L44.588,84.778 C49.292,80.326 51.896,76.042 53.912,69.994 L55.76,70.708 C55.256,72.262 54.71,73.606 54.08,74.95 C55.886,77.638 58.868,80.494 62.018,81.502 L62.018,68.734 L44.714,68.734 L44.714,66.802 L81.086,66.802 L81.086,68.734 L63.992,68.734 L63.992,74.152 L78.062,74.152 L78.062,76.126 L63.992,76.126 L63.992,82.132 C66.974,83.014 70.67,83.35 76.718,83.35 C78.44,83.35 80.246,83.308 82.262,83.14 z M51.056,63.568 L51.056,50.044 L74.618,50.044 L74.618,63.568 z M100.784,73.648 C100.112,74.74 99.398,75.79 98.6,76.756 C101.33,77.386 104.018,78.016 106.496,78.646 C108.218,77.344 109.772,75.496 110.738,73.648 z M104.606,67.222 L104.606,67.264 C103.724,68.902 103.136,69.868 102.506,70.834 L123.086,70.834 L123.086,73.648 L114.014,73.648 C113.006,75.79 111.41,77.932 109.772,79.57 C114.182,80.914 118.046,82.006 122.708,83.728 L121.238,86.542 C116.492,84.736 111.998,83.266 107,81.796 C101.456,84.694 95.282,85.912 87.554,86.71 L86.756,83.812 C93.602,83.14 98.894,82.384 103.262,80.662 C99.692,79.864 96.836,79.234 93.308,78.562 C95.114,76.504 96.164,75.286 97.256,73.648 L86.714,73.648 L86.714,70.834 L99.104,70.834 C99.818,69.784 100.574,68.566 101.288,67.222 L87.05,67.222 L87.05,64.408 L103.556,64.408 L103.556,61.636 L90.83,61.636 L90.83,58.822 L103.556,58.822 L103.556,56.092 L88.352,56.092 L88.352,53.32 L98.558,53.32 C97.844,52.144 97.172,51.22 95.66,49.162 L98.306,47.692 C99.944,50.002 100.868,51.43 102.086,53.32 L107.966,53.32 C109.268,51.514 110.36,49.876 111.662,47.65 L114.476,48.7 C113.258,50.674 112.334,51.976 111.368,53.32 L121.406,53.32 L121.406,56.092 L106.496,56.092 L106.496,58.822 L118.55,58.822 L118.55,61.636 L106.496,61.636 L106.496,64.408 L122.666,64.408 L122.666,67.222 z M160.844,70.078 L147.74,70.078 L147.74,81.166 L160.844,81.166 z M160.844,57.646 L147.74,57.646 L147.74,67.18 L160.844,67.18 z M141.986,72.682 C140.558,69.574 139.508,67.39 138.164,64.828 L138.164,86.626 L135.266,86.626 L135.266,66.256 C134.72,67.726 134.174,69.364 133.376,71.086 C132.41,73.27 131.36,75.58 129.806,78.1 L127.454,76.294 C130.856,70.54 133.334,64.87 134.804,59.536 L128.294,59.536 L128.294,56.68 L135.266,56.68 L135.266,48.154 L138.164,48.154 L138.164,56.68 L144.254,56.68 L144.254,59.536 L138.164,59.536 L138.164,63.568 L140.012,62.476 C141.818,65.71 142.91,67.894 144.464,71.128 z M160.844,86.668 L160.844,84.106 L147.74,84.106 L147.74,86.668 L144.842,86.668 L144.842,54.664 L151.268,54.664 C152.066,52.69 152.654,50.632 153.368,47.902 L156.308,48.826 C155.636,51.178 154.964,53.11 154.334,54.664 L163.742,54.664 L163.742,86.668 z M179.03,86.584 L175.796,86.584 L175.796,65.458 C174.662,67.474 173.57,69.7 171.932,72.052 L169.454,69.994 C173.948,63.148 177.728,55.21 180.29,47.86 L183.356,48.868 C182.81,50.506 182.348,51.85 181.844,53.068 C190.412,52.186 197.846,51.01 205.616,49.372 L207.338,52.354 C203.474,53.068 200.072,53.74 196.25,54.37 L196.25,65.542 L207.758,65.542 L207.758,68.776 L196.25,68.776 L196.25,81.796 L206.456,81.796 L206.456,84.904 L182.054,84.904 L182.054,81.796 L192.89,81.796 L192.89,68.776 L180.71,68.776 L180.71,65.542 L192.89,65.542 L192.89,54.832 C189.992,55.294 186.884,55.714 183.062,56.218 L181.844,53.068 C180.836,55.588 179.87,57.52 179.03,59.41 z M218.132,83.014 C220.652,83.014 222.668,80.998 222.668,78.478 C222.668,76 220.652,73.942 218.132,73.942 C215.612,73.942 213.596,76 213.596,78.478 C213.596,80.998 215.612,83.014 218.132,83.014 z M218.132,72.304 C221.534,72.304 224.264,75.076 224.264,78.478 C224.264,81.88 221.534,84.652 218.132,84.652 C214.73,84.652 211.958,81.88 211.958,78.478 C211.958,75.076 214.73,72.304 218.132,72.304 z" fill="#FFFFFF"/>
</svg>
