<?xml version="1.0" encoding="utf-8"?>
<!DOCTYPE svg PUBLIC "-//W3C//DTD SVG 1.1//EN" "http://www.w3.org/Graphics/SVG/1.1/DTD/svg11.dtd">
<svg version="1.1" id="Mastodon" xmlns="http://www.w3.org/2000/svg" xmlns:xlink="http://www.w3.org/1999/xlink" x="0px" y="0px"
	 viewBox="0 0 20 20" enable-background="new 0 0 20 20" xml:space="preserve">
<path fill="#cc0036" d="M18.47,4.985C18.207,3.051 16.502,1.527 14.482,1.232C14.142,1.182 12.85,1 9.859,1L9.837,1C6.845,1 6.203,1.182 5.862,1.232C3.898,1.519 2.105,2.888 1.67,4.845C1.461,5.809 1.438,6.877 1.477,7.857C1.533,9.263 1.543,10.666 1.672,12.066C1.762,12.996 1.917,13.918 2.138,14.826C2.552,16.503 4.226,17.899 5.866,18.468C7.623,19.062 9.511,19.161 11.321,18.753C11.52,18.707 11.717,18.654 11.912,18.594C12.351,18.455 12.866,18.301 13.245,18.029C13.25,18.025 13.254,18.02 13.257,18.015C13.26,18.009 13.262,18.003 13.262,17.996L13.262,16.64C13.262,16.634 13.261,16.628 13.258,16.623C13.255,16.617 13.252,16.613 13.247,16.609C13.242,16.605 13.237,16.603 13.231,16.601C13.225,16.6 13.219,16.6 13.213,16.601C12.053,16.875 10.865,17.013 9.673,17.01C7.622,17.01 7.07,16.048 6.912,15.647C6.785,15.3 6.704,14.939 6.672,14.572C6.672,14.566 6.673,14.559 6.675,14.554C6.678,14.548 6.682,14.543 6.687,14.539C6.691,14.535 6.697,14.533 6.703,14.531C6.709,14.53 6.716,14.53 6.722,14.532C7.862,14.804 9.031,14.941 10.203,14.941C10.485,14.941 10.767,14.941 11.049,14.933C12.228,14.901 13.472,14.841 14.632,14.617C14.661,14.611 14.69,14.606 14.715,14.599C16.545,14.251 18.288,13.16 18.465,10.396C18.471,10.287 18.488,9.256 18.488,9.143C18.489,8.76 18.613,6.422 18.47,4.985ZM15.652,11.881L13.727,11.881L13.727,7.218C13.727,6.236 13.314,5.735 12.472,5.735C11.548,5.735 11.084,6.328 11.084,7.497L11.084,10.05L9.171,10.05L9.171,7.497C9.171,6.328 8.707,5.735 7.782,5.735C6.946,5.735 6.528,6.236 6.527,7.218L6.527,11.881L4.604,11.881L4.604,7.076C4.604,6.094 4.857,5.314 5.364,4.736C5.887,4.16 6.573,3.863 7.424,3.863C8.409,3.863 9.154,4.238 9.65,4.987L10.129,5.782L10.609,4.987C11.105,4.238 11.849,3.863 12.833,3.863C13.683,3.863 14.369,4.16 14.894,4.736C15.4,5.314 15.654,6.094 15.654,7.076L15.652,11.881Z"/>
</svg>
